<svg xmlns="http://www.w3.org/2000/svg" xmlns:xlink="http://www.w3.org/1999/xlink" id="Layer_1" x="0" y="0" version="1.1" viewBox="0 0 20 20" style="enable-background:new 0 0 20 20" xml:space="preserve"><style type="text/css">.st0{fill-rule:evenodd;clip-rule:evenodd}</style><path d="M20,15.5c0,0.83-0.67,1.5-1.5,1.5H17v1.5c0,0.83-0.67,1.5-1.5,1.5S14,19.33,14,18.5V6H1.5C0.67,6,0,5.33,0,4.5S0.67,3,1.5,3
	H3V1.5C3,0.67,3.67,0,4.5,0S6,0.67,6,1.5V3h11v11h1.5C19.33,14,20,14.67,20,15.5z M6,8H3v9h9v-3H6V8z" class="st0"/>
</svg>
